<svg aria-hidden="true" style="width:0;height:0;position:absolute;overflow:hidden" xmlns="http://www.w3.org/2000/svg"><defs><symbol id="icon-shopping-cart-dark-theme" viewBox="0 0 32 32"><path fill="#fff" style="fill:var(--color1,#fff);stroke:var(--color1,#fff)" stroke="#fff" stroke-linejoin="round" stroke-linecap="round" stroke-width="2.667" d="M12 29.333a1.333 1.333 0 1 0 0-2.667 1.333 1.333 0 0 0 0 2.667zM26.667 29.333a1.333 1.333 0 1 0 0-2.667 1.333 1.333 0 0 0 0 2.667z"/><path fill="none" stroke="#fff" style="stroke:var(--color1,#fff)" stroke-linejoin="round" stroke-linecap="round" stroke-width="2.4" d="M1.333 1.333h5.333l3.573 17.853a2.671 2.671 0 0 0 2.666 2.147h12.96a2.667 2.667 0 0 0 2.666-2.147l2.133-11.187H7.997"/></symbol><symbol id="icon-favorites_elements" viewBox="0 0 38 32"><path fill="#9bb537" style="fill:var(--color2,#9bb537)" d="M7.172 12.69h23.172v17.655H7.172V12.69z"/><path fill="#9bb537" style="fill:var(--color2,#9bb537)" d="M16.552 11.586c0 4.571-3.705 8.276-8.276 8.276S0 16.157 0 11.586 3.705 3.31 8.276 3.31s8.276 3.705 8.276 8.276z"/><path fill="#9bb537" style="fill:var(--color2,#9bb537)" d="M27.034 8.276c0 4.571-3.705 8.276-8.276 8.276s-8.276-3.705-8.276-8.276S14.187 0 18.758 0s8.276 3.705 8.276 8.276z"/><path fill="#9bb537" style="fill:var(--color2,#9bb537)" d="M37.517 11.586c0 4.571-3.705 8.276-8.276 8.276s-8.276-3.705-8.276-8.276S24.67 3.31 29.241 3.31s8.276 3.705 8.276 8.276z"/><path fill="#f8f8f8" style="fill:var(--color3,#f8f8f8)" d="M7.172 29.241h23.172v2.081c0 .374-.324.678-.724.678H7.896c-.4 0-.724-.303-.724-.678v-2.081zM14.345 10.463c0-.598.371-1.084.828-1.084s.828.485.828 1.084v5.005c0 .598-.371 1.084-.828 1.084s-.828-.485-.828-1.084v-5.005zM17.103 10.463c0-.598.618-1.084 1.379-1.084s1.379.485 1.379 1.084v5.005c0 .598-.618 1.084-1.379 1.084s-1.379-.485-1.379-1.084v-5.005zM20.966 10.463c0-.598.494-1.084 1.103-1.084s1.103.485 1.103 1.084v5.005c0 .598-.494 1.084-1.103 1.084s-1.103-.485-1.103-1.084v-5.005z"/><path fill="#050505" style="fill:var(--color4,#050505)" d="M28.184 3.131c.288-.03.581-.045.878-.045A8.333 8.333 0 0 1 37 8.832c-.288.03-.581.045-.878.045a8.333 8.333 0 0 1-7.938-5.746z"/></symbol><symbol id="icon-pagination_right_double" viewBox="0 0 33 32"><path fill="#9bb537" style="fill:var(--color2,#9bb537)" d="M32.4 16c0 8.837-7.163 16-16 16S.4 24.837.4 16s7.163-16 16-16 16 7.163 16 16z"/><path fill="#050505" style="fill:var(--color4,#050505)" d="M19.733 16.473A.68.68 0 0 0 19.93 16a.66.66 0 0 0-.197-.473l-3.06-3.053a.68.68 0 0 1-.197-.473.66.66 0 0 1 .197-.473.668.668 0 0 1 .94 0l3.06 3.06a1.997 1.997 0 0 1 0 2.826l-3.06 3.06a.664.664 0 0 1-.94-.001.68.68 0 0 1-.197-.473.66.66 0 0 1 .197-.473l3.06-3.053z"/><path fill="#050505" style="fill:var(--color4,#050505)" d="M14.933 16.473A.68.68 0 0 0 15.13 16a.66.66 0 0 0-.197-.473l-3.06-3.053a.68.68 0 0 1-.197-.473.66.66 0 0 1 .197-.473.668.668 0 0 1 .94 0l3.06 3.06a1.997 1.997 0 0 1 0 2.826l-3.06 3.06a.664.664 0 0 1-.94-.001.68.68 0 0 1-.197-.473.66.66 0 0 1 .197-.473l3.06-3.053z"/></symbol><symbol id="icon-pagination_right_singl" viewBox="0 0 33 32"><path fill="#9bb537" style="fill:var(--color2,#9bb537)" d="M32.4 16c0 8.837-7.163 16-16 16S.4 24.837.4 16s7.163-16 16-16 16 7.163 16 16z"/><path fill="#050505" style="fill:var(--color4,#050505)" d="M17.333 16.473A.68.68 0 0 0 17.53 16a.66.66 0 0 0-.197-.473l-3.06-3.053a.68.68 0 0 1-.197-.473.66.66 0 0 1 .197-.473.668.668 0 0 1 .94 0l3.06 3.06a1.997 1.997 0 0 1 0 2.826l-3.06 3.06a.664.664 0 0 1-.94-.001.68.68 0 0 1-.197-.473.66.66 0 0 1 .197-.473l3.06-3.053z"/></symbol><symbol id="icon-align-justify" viewBox="0 0 31 32"><path stroke-linejoin="round" stroke-linecap="round" stroke-width="1.939" d="M27.151 13.414H3.878M27.151 8.242H3.878M27.151 18.586H3.878M27.151 23.758H3.878"/></symbol><symbol id="icon-align-justify-dark-theme" viewBox="0 0 31 32"><path fill="none" stroke="#fff" style="stroke:var(--color1,#fff)" stroke-linejoin="round" stroke-linecap="round" stroke-width="1.939" d="M27.151 13.414H3.878M27.151 8.242H3.878M27.151 18.586H3.878M27.151 23.758H3.878"/></symbol><symbol id="icon-pagination_left_double" viewBox="0 0 32 32"><path fill="#050505" style="fill:var(--color4,#050505)" d="M32 16c0 8.837-7.163 16-16 16S0 24.837 0 16 7.163 0 16 0s16 7.163 16 16z"/><path fill="#f8f8f8" style="fill:var(--color3,#f8f8f8)" opacity=".5" d="M12.073 16.516a.732.732 0 0 1 0-1.034l3.338-3.331a.732.732 0 0 0 0-1.034.725.725 0 0 0-1.026 0l-3.338 3.338a2.18 2.18 0 0 0 0 3.084l3.338 3.338a.728.728 0 0 0 1.025-1.034l-3.338-3.331z"/><path fill="#f8f8f8" style="fill:var(--color3,#f8f8f8)" opacity=".5" d="M17.164 16.516a.732.732 0 0 1 0-1.034l3.338-3.331a.732.732 0 0 0 0-1.034.725.725 0 0 0-1.026 0l-3.338 3.338a2.18 2.18 0 0 0 0 3.084l3.338 3.338a.728.728 0 0 0 1.025-1.034l-3.338-3.331z"/></symbol><symbol id="icon-pagination_left_singl" viewBox="0 0 33 32"><path fill="#050505" style="fill:var(--color4,#050505)" d="M32.4 16c0 8.837-7.163 16-16 16S.4 24.837.4 16s7.163-16 16-16 16 7.163 16 16z"/><path fill="#f8f8f8" style="fill:var(--color3,#f8f8f8)" opacity=".5" d="M15.467 16.473A.68.68 0 0 1 15.27 16a.66.66 0 0 1 .197-.473l3.06-3.053a.68.68 0 0 0 .197-.473.66.66 0 0 0-.197-.473.668.668 0 0 0-.94 0l-3.06 3.06a1.997 1.997 0 0 0 0 2.826l3.06 3.06a.664.664 0 0 0 .94-.001.68.68 0 0 0 .197-.473.66.66 0 0 0-.197-.473l-3.06-3.053z"/></symbol><symbol id="icon-popup_x" viewBox="0 0 32 32"><path stroke-linejoin="round" stroke-linecap="round" stroke-width="2.88" d="M24 8 8 24M8 8l16 16"/></symbol><symbol id="icon-shopping-cart" viewBox="0 0 32 32"><path stroke-linejoin="round" stroke-linecap="round" stroke-width="2.667" d="M12 29.333a1.333 1.333 0 1 0 0-2.667 1.333 1.333 0 0 0 0 2.667zM26.667 29.333a1.333 1.333 0 1 0 0-2.667 1.333 1.333 0 0 0 0 2.667z"/><path stroke-linejoin="round" stroke-linecap="round" stroke-width="2.4" d="M1.333 1.333h5.333l3.573 17.853a2.671 2.671 0 0 0 2.666 2.147h12.96a2.667 2.667 0 0 0 2.666-2.147l2.133-11.187H7.997"/></symbol><symbol id="icon-x" viewBox="0 0 32 32"><path fill="none" stroke="#f8f8f8" style="stroke:var(--color3,#f8f8f8)" stroke-linejoin="round" stroke-linecap="round" stroke-width="2" d="M24 8 8 24M8 8l16 16"/></symbol><symbol id="search-icon" viewBox="0 0 18 18"><path d="m16.283 15.218-2.783-2.76a6.75 6.75 0 1 0-1.042 1.042l2.76 2.76a.75.75 0 0 0 1.065 0 .75.75 0 0 0 0-1.042ZM8.25 13.5a5.25 5.25 0 1 1 0-10.5 5.25 5.25 0 0 1 0 10.5Z"/></symbol><symbol id="icon-chef-hat" viewBox="0 0 37 32"><path fill="#9bb537" style="fill:var(--color1,#9bb537)" d="M7.325 12.723h23.133v17.735H7.325V12.723z"/><path fill="#9bb537" style="fill:var(--color1,#9bb537)" d="M16.578 11.373a8.289 8.289 0 1 1-16.578 0 8.289 8.289 0 1 1 16.578 0z"/><path fill="#9bb537" style="fill:var(--color1,#9bb537)" d="M26.988 8.289a8.289 8.289 0 1 1-16.578 0 8.289 8.289 0 1 1 16.578 0z"/><path fill="#9bb537" style="fill:var(--color1,#9bb537)" d="M37.398 11.373a8.289 8.289 0 1 1-16.578 0 8.289 8.289 0 1 1 16.578 0z"/><path fill="#f8f8f8" style="fill:var(--color2,#f8f8f8)" d="M7.325 29.301h23.133v2.036c0 .366-.324.663-.723.663H8.048c-.399 0-.723-.297-.723-.663v-2.036zm6.94-18.941c0-.611.432-1.107.964-1.107s.964.495.964 1.107v5.112c0 .611-.432 1.107-.964 1.107s-.964-.495-.964-1.107V10.36zm3.084 0c0-.611.604-1.107 1.349-1.107s1.349.495 1.349 1.107v5.112c0 .611-.604 1.107-1.349 1.107s-1.349-.495-1.349-1.107V10.36zm3.856 0c0-.611.432-1.107.964-1.107s.964.495.964 1.107v5.112c0 .611-.432 1.107-.964 1.107s-.964-.495-.964-1.107V10.36z"/><path fill="#050505" style="fill:var(--color3,#050505)" d="M28.184 3.131c.262-.029.566-.045.874-.045h.005a8.332 8.332 0 0 1 7.938 5.746 8.333 8.333 0 0 1-8.816-5.7z"/></symbol></defs></svg>