<svg aria-hidden="true" style="width:0;height:0;position:absolute;overflow:hidden" xmlns="http://www.w3.org/2000/svg"><defs><symbol id="icon-shopping-cart-dark-theme" viewBox="0 0 32 32"><path fill="#fff" style="fill:var(--color1,#fff);stroke:var(--color1,#fff)" stroke="#fff" stroke-linejoin="round" stroke-linecap="round" stroke-width="2.667" d="M12 29.333a1.333 1.333 0 1 0 0-2.667 1.333 1.333 0 0 0 0 2.667zM26.667 29.333a1.333 1.333 0 1 0 0-2.667 1.333 1.333 0 0 0 0 2.667z"/><path fill="none" stroke="#fff" style="stroke:var(--color1,#fff)" stroke-linejoin="round" stroke-linecap="round" stroke-width="2.4" d="M1.333 1.333h5.333l3.573 17.853a2.671 2.671 0 0 0 2.666 2.147h12.96a2.667 2.667 0 0 0 2.666-2.147l2.133-11.187H7.997"/></symbol><symbol id="icon-favorites_elements" viewBox="0 0 38 32"><path fill="#9bb537" style="fill:var(--color2,#9bb537)" d="M7.172 12.69h23.172v17.655H7.172V12.69z"/><path fill="#9bb537" style="fill:var(--color2,#9bb537)" d="M16.552 11.586c0 4.571-3.705 8.276-8.276 8.276S0 16.157 0 11.586 3.705 3.31 8.276 3.31s8.276 3.705 8.276 8.276z"/><path fill="#9bb537" style="fill:var(--color2,#9bb537)" d="M27.034 8.276c0 4.571-3.705 8.276-8.276 8.276s-8.276-3.705-8.276-8.276S14.187 0 18.758 0s8.276 3.705 8.276 8.276z"/><path fill="#9bb537" style="fill:var(--color2,#9bb537)" d="M37.517 11.586c0 4.571-3.705 8.276-8.276 8.276s-8.276-3.705-8.276-8.276S24.67 3.31 29.241 3.31s8.276 3.705 8.276 8.276z"/><path fill="#f8f8f8" style="fill:var(--color3,#f8f8f8)" d="M7.172 29.241h23.172v2.081c0 .374-.324.678-.724.678H7.896c-.4 0-.724-.303-.724-.678v-2.081zM14.345 10.463c0-.598.371-1.084.828-1.084s.828.485.828 1.084v5.005c0 .598-.371 1.084-.828 1.084s-.828-.485-.828-1.084v-5.005zM17.103 10.463c0-.598.618-1.084 1.379-1.084s1.379.485 1.379 1.084v5.005c0 .598-.618 1.084-1.379 1.084s-1.379-.485-1.379-1.084v-5.005zM20.966 10.463c0-.598.494-1.084 1.103-1.084s1.103.485 1.103 1.084v5.005c0 .598-.494 1.084-1.103 1.084s-1.103-.485-1.103-1.084v-5.005z"/><path fill="#050505" style="fill:var(--color4,#050505)" d="M28.184 3.131c.288-.03.581-.045.878-.045A8.333 8.333 0 0 1 37 8.832c-.288.03-.581.045-.878.045a8.333 8.333 0 0 1-7.938-5.746z"/></symbol><symbol id="icon-align-justify" viewBox="0 0 31 32"><path stroke-linejoin="round" stroke-linecap="round" stroke-width="1.939" d="M27.151 13.414H3.878M27.151 8.242H3.878M27.151 18.586H3.878M27.151 23.758H3.878"/></symbol><symbol id="icon-align-justify-dark-theme" viewBox="0 0 31 32"><path fill="none" stroke="#fff" style="stroke:var(--color1,#fff)" stroke-linejoin="round" stroke-linecap="round" stroke-width="1.939" d="M27.151 13.414H3.878M27.151 8.242H3.878M27.151 18.586H3.878M27.151 23.758H3.878"/></symbol><symbol id="icon-popup_x" viewBox="0 0 32 32"><path stroke-linejoin="round" stroke-linecap="round" stroke-width="2.88" d="M24 8 8 24M8 8l16 16"/></symbol><symbol id="icon-shopping-cart" viewBox="0 0 32 32"><path stroke-linejoin="round" stroke-linecap="round" stroke-width="2.667" d="M12 29.333a1.333 1.333 0 1 0 0-2.667 1.333 1.333 0 0 0 0 2.667zM26.667 29.333a1.333 1.333 0 1 0 0-2.667 1.333 1.333 0 0 0 0 2.667z"/><path stroke-linejoin="round" stroke-linecap="round" stroke-width="2.4" d="M1.333 1.333h5.333l3.573 17.853a2.671 2.671 0 0 0 2.666 2.147h12.96a2.667 2.667 0 0 0 2.666-2.147l2.133-11.187H7.997"/></symbol><symbol id="icon-x" viewBox="0 0 32 32"><path fill="none" stroke="#f8f8f8" style="stroke:var(--color3,#f8f8f8)" stroke-linejoin="round" stroke-linecap="round" stroke-width="2" d="M24 8 8 24M8 8l16 16"/></symbol><symbol id="search-icon" viewBox="0 0 18 18"><path d="m16.283 15.218-2.783-2.76a6.75 6.75 0 1 0-1.042 1.042l2.76 2.76a.75.75 0 0 0 1.065 0 .75.75 0 0 0 0-1.042ZM8.25 13.5a5.25 5.25 0 1 1 0-10.5 5.25 5.25 0 0 1 0 10.5Z"/></symbol><symbol id="icon-heart" viewBox="0 0 32 32"><path stroke-width="2.909" stroke-linecap="round" stroke-linejoin="round" d="M15.991 6.848C13.326 3.731 8.88 2.892 5.542 5.745c-3.34 2.854-3.811 7.625-1.187 11.001 2.182 2.806 8.781 8.724 10.944 10.64.241.214.364.321.503.364a.678.678 0 0 0 .386-.002l-.005.001c.141-.042.262-.15.505-.364 2.163-1.916 8.764-7.834 10.944-10.64 2.623-3.375 2.211-8.177-1.187-11.001-3.398-2.825-7.786-2.016-10.452 1.101z"/></symbol><symbol id="icon-left" viewBox="0 0 34 32"><path d="M14.934 16.947a1.334 1.334 0 0 1 0-1.894l6.12-6.107a1.334 1.334 0 1 0-1.88-1.894l-6.12 6.12a4.001 4.001 0 0 0 0 5.654l6.12 6.12a1.337 1.337 0 0 0 2.172-.434 1.331 1.331 0 0 0-.292-1.46l-6.12-6.107z"/></symbol><symbol id="icon-right" viewBox="0 0 34 32"><path d="M18.666 16.947a1.344 1.344 0 0 0 .395-.947 1.331 1.331 0 0 0-.395-.947l-6.12-6.107a1.334 1.334 0 1 1 1.88-1.894l6.12 6.12a4.001 4.001 0 0 1 0 5.654l-6.12 6.12a1.337 1.337 0 0 1-2.172-.434 1.331 1.331 0 0 1 .292-1.46l6.12-6.107z"/></symbol><symbol id="icon-chef-hat" viewBox="0 0 37 32"><path fill="#9bb537" style="fill:var(--color1,#9bb537)" d="M7.325 12.723h23.133v17.735H7.325V12.723z"/><path fill="#9bb537" style="fill:var(--color1,#9bb537)" d="M16.578 11.373a8.289 8.289 0 1 1-16.578 0 8.289 8.289 0 1 1 16.578 0z"/><path fill="#9bb537" style="fill:var(--color1,#9bb537)" d="M26.988 8.289a8.289 8.289 0 1 1-16.578 0 8.289 8.289 0 1 1 16.578 0z"/><path fill="#9bb537" style="fill:var(--color1,#9bb537)" d="M37.398 11.373a8.289 8.289 0 1 1-16.578 0 8.289 8.289 0 1 1 16.578 0z"/><path fill="#f8f8f8" style="fill:var(--color2,#f8f8f8)" d="M7.325 29.301h23.133v2.036c0 .366-.324.663-.723.663H8.048c-.399 0-.723-.297-.723-.663v-2.036zm6.94-18.941c0-.611.432-1.107.964-1.107s.964.495.964 1.107v5.112c0 .611-.432 1.107-.964 1.107s-.964-.495-.964-1.107V10.36zm3.084 0c0-.611.604-1.107 1.349-1.107s1.349.495 1.349 1.107v5.112c0 .611-.604 1.107-1.349 1.107s-1.349-.495-1.349-1.107V10.36zm3.856 0c0-.611.432-1.107.964-1.107s.964.495.964 1.107v5.112c0 .611-.432 1.107-.964 1.107s-.964-.495-.964-1.107V10.36z"/><path fill="#050505" style="fill:var(--color3,#050505)" d="M28.184 3.131c.262-.029.566-.045.874-.045h.005a8.332 8.332 0 0 1 7.938 5.746 8.333 8.333 0 0 1-8.816-5.7z"/></symbol></defs></svg>