<!-- Generated by IcoMoon.io -->
<svg version="1.1" xmlns="http://www.w3.org/2000/svg" width="38" height="32" viewBox="0 0 38 32">
<title>favorites_elements</title>
<path fill="#9bb537" d="M7.172 12.69h23.172v17.655h-23.172v-17.655z"></path>
<path fill="#9bb537" d="M16.552 11.586c0 4.571-3.705 8.276-8.276 8.276s-8.276-3.705-8.276-8.276c0-4.571 3.705-8.276 8.276-8.276s8.276 3.705 8.276 8.276z"></path>
<path fill="#9bb537" d="M27.034 8.276c0 4.571-3.705 8.276-8.276 8.276s-8.276-3.705-8.276-8.276c0-4.571 3.705-8.276 8.276-8.276s8.276 3.705 8.276 8.276z"></path>
<path fill="#9bb537" d="M37.517 11.586c0 4.571-3.705 8.276-8.276 8.276s-8.276-3.705-8.276-8.276c0-4.571 3.705-8.276 8.276-8.276s8.276 3.705 8.276 8.276z"></path>
<path fill="#f8f8f8" d="M7.172 29.241h23.172v2.081c0 0.374-0.324 0.678-0.724 0.678h-21.724c-0.4 0-0.724-0.303-0.724-0.678v-2.081z"></path>
<path fill="#f8f8f8" d="M14.345 10.463c0-0.598 0.371-1.084 0.828-1.084s0.828 0.485 0.828 1.084v5.005c0 0.598-0.371 1.084-0.828 1.084s-0.828-0.485-0.828-1.084v-5.005z"></path>
<path fill="#f8f8f8" d="M17.103 10.463c0-0.598 0.618-1.084 1.379-1.084s1.379 0.485 1.379 1.084v5.005c0 0.598-0.618 1.084-1.379 1.084s-1.379-0.485-1.379-1.084v-5.005z"></path>
<path fill="#f8f8f8" d="M20.966 10.463c0-0.598 0.494-1.084 1.103-1.084s1.103 0.485 1.103 1.084v5.005c0 0.598-0.494 1.084-1.103 1.084s-1.103-0.485-1.103-1.084v-5.005z"></path>
<path fill="#050505" d="M28.184 3.131c0.288-0.030 0.581-0.045 0.878-0.045 3.714 0 6.861 2.413 7.938 5.746-0.288 0.030-0.581 0.045-0.878 0.045-3.714 0-6.861-2.413-7.938-5.746z"></path>
</svg>
