<!-- Generated by IcoMoon.io -->
<svg version="1.1" xmlns="http://www.w3.org/2000/svg" width="32" height="32" viewBox="0 0 32 32">
<title>pagination_left_double</title>
<path fill="#050505" d="M32 16c0 8.837-7.163 16-16 16s-16-7.163-16-16c0-8.837 7.163-16 16-16s16 7.163 16 16z"></path>
<path fill="#f8f8f8" opacity="0.5" d="M12.073 16.516c-0.068-0.068-0.122-0.148-0.159-0.237s-0.056-0.184-0.056-0.28 0.019-0.191 0.056-0.28c0.037-0.089 0.091-0.169 0.159-0.237l3.338-3.331c0.068-0.068 0.122-0.148 0.159-0.237s0.056-0.184 0.056-0.28c0-0.096-0.019-0.191-0.056-0.28s-0.091-0.169-0.159-0.237c-0.136-0.136-0.321-0.211-0.513-0.211s-0.377 0.076-0.513 0.211l-3.338 3.338c-0.409 0.409-0.638 0.964-0.638 1.542s0.23 1.133 0.638 1.542l3.338 3.338c0.135 0.134 0.318 0.21 0.509 0.211 0.096 0 0.191-0.018 0.279-0.054s0.169-0.090 0.237-0.157c0.068-0.068 0.122-0.148 0.159-0.237s0.056-0.184 0.056-0.28-0.019-0.191-0.056-0.28c-0.037-0.089-0.091-0.169-0.159-0.237l-3.338-3.331z"></path>
<path fill="#f8f8f8" opacity="0.5" d="M17.164 16.516c-0.068-0.068-0.122-0.148-0.159-0.237s-0.056-0.184-0.056-0.28 0.019-0.191 0.056-0.28c0.037-0.089 0.091-0.169 0.159-0.237l3.338-3.331c0.068-0.068 0.122-0.148 0.159-0.237s0.056-0.184 0.056-0.28c0-0.096-0.019-0.191-0.056-0.28s-0.091-0.169-0.159-0.237c-0.136-0.136-0.321-0.211-0.513-0.211s-0.377 0.076-0.513 0.211l-3.338 3.338c-0.409 0.409-0.638 0.964-0.638 1.542s0.23 1.133 0.638 1.542l3.338 3.338c0.135 0.134 0.318 0.21 0.509 0.211 0.096 0 0.191-0.018 0.279-0.054s0.169-0.090 0.237-0.157c0.068-0.068 0.122-0.148 0.159-0.237s0.056-0.184 0.056-0.28-0.019-0.191-0.056-0.28c-0.037-0.089-0.091-0.169-0.159-0.237l-3.338-3.331z"></path>
</svg>
